<svg xmlns="http://www.w3.org/2000/svg" version="1.1" xmlns:xlink="http://www.w3.org/1999/xlink" xmlns:svgjs="http://svgjs.dev/svgjs" viewBox="0 0 1422 800" opacity="1"><g stroke-width="1.5" stroke="hsl(230, 55%, 40%)" fill="none" stroke-linecap="round"><path d="M 0 2625 Q 355.5 -100 711 400 Q 1066.5 900 1422 2625"></path><path d="M 0 2500 Q 355.5 -100 711 400 Q 1066.5 900 1422 2500"></path><path d="M 0 2375 Q 355.5 -100 711 400 Q 1066.5 900 1422 2375"></path><path d="M 0 2250 Q 355.5 -100 711 400 Q 1066.5 900 1422 2250"></path><path d="M 0 2125 Q 355.5 -100 711 400 Q 1066.5 900 1422 2125"></path><path d="M 0 2000 Q 355.5 -100 711 400 Q 1066.5 900 1422 2000"></path><path d="M 0 1875 Q 355.5 -100 711 400 Q 1066.5 900 1422 1875"></path><path d="M 0 1750 Q 355.5 -100 711 400 Q 1066.5 900 1422 1750"></path><path d="M 0 1625 Q 355.5 -100 711 400 Q 1066.5 900 1422 1625"></path><path d="M 0 1500 Q 355.5 -100 711 400 Q 1066.5 900 1422 1500"></path><path d="M 0 1375 Q 355.5 -100 711 400 Q 1066.5 900 1422 1375"></path><path d="M 0 1250 Q 355.5 -100 711 400 Q 1066.5 900 1422 1250"></path><path d="M 0 1125 Q 355.5 -100 711 400 Q 1066.5 900 1422 1125"></path><path d="M 0 1000 Q 355.5 -100 711 400 Q 1066.5 900 1422 1000"></path><path d="M 0 875 Q 355.5 -100 711 400 Q 1066.5 900 1422 875"></path><path d="M 0 750 Q 355.5 -100 711 400 Q 1066.5 900 1422 750"></path><path d="M 0 625 Q 355.5 -100 711 400 Q 1066.5 900 1422 625"></path><path d="M 0 500 Q 355.5 -100 711 400 Q 1066.5 900 1422 500"></path><path d="M 0 375 Q 355.5 -100 711 400 Q 1066.5 900 1422 375"></path><path d="M 0 250 Q 355.5 -100 711 400 Q 1066.5 900 1422 250"></path></g></svg>