<svg xmlns="http://www.w3.org/2000/svg" version="1.1" xmlns:xlink="http://www.w3.org/1999/xlink" xmlns:svgjs="http://svgjs.dev/svgjs" viewBox="0 0 800 800" opacity="1"><defs><linearGradient x1="50%" y1="0%" x2="50%" y2="100%" id="hhhorizon-grad"><stop stop-color="hsl(230, 55%, 50%)" stop-opacity="1" offset="25%"></stop><stop stop-color="hsl(230, 55%, 70%)" stop-opacity="1" offset="100%"></stop></linearGradient><linearGradient x1="50%" y1="0%" x2="50%" y2="100%" id="hhhorizon-grad2"><stop stop-color="hsl(230, 55%, 70%)" stop-opacity="1" offset="0%"></stop><stop stop-color="hsl(230, 55%, 50%)" stop-opacity="1" offset="75%"></stop></linearGradient><clipPath id="SvgjsClipPath1187"><rect width="800" height="40" x="0" y="0"></rect><rect width="800" height="39" x="0" y="21"></rect><rect width="800" height="38" x="0" y="41"></rect><rect width="800" height="37" x="0" y="62"></rect><rect width="800" height="36" x="0" y="82"></rect><rect width="800" height="35" x="0" y="103"></rect><rect width="800" height="34" x="0" y="123"></rect><rect width="800" height="33" x="0" y="144"></rect><rect width="800" height="32" x="0" y="164"></rect><rect width="800" height="31" x="0" y="185"></rect><rect width="800" height="30" x="0" y="205"></rect><rect width="800" height="29" x="0" y="226"></rect><rect width="800" height="28" x="0" y="246"></rect><rect width="800" height="27" x="0" y="267"></rect><rect width="800" height="26" x="0" y="287"></rect><rect width="800" height="25" x="0" y="308"></rect><rect width="800" height="24" x="0" y="328"></rect><rect width="800" height="23" x="0" y="349"></rect><rect width="800" height="22" x="0" y="369"></rect><rect width="800" height="21" x="0" y="390"></rect><rect width="800" height="20" x="0" y="410"></rect><rect width="800" height="19" x="0" y="431"></rect><rect width="800" height="18" x="0" y="451"></rect><rect width="800" height="17" x="0" y="472"></rect><rect width="800" height="16" x="0" y="492"></rect><rect width="800" height="15" x="0" y="513"></rect><rect width="800" height="14" x="0" y="533"></rect><rect width="800" height="13" x="0" y="554"></rect><rect width="800" height="12" x="0" y="574"></rect><rect width="800" height="11" x="0" y="595"></rect><rect width="800" height="10" x="0" y="615"></rect><rect width="800" height="9" x="0" y="636"></rect><rect width="800" height="8" x="0" y="656"></rect><rect width="800" height="7" x="0" y="677"></rect><rect width="800" height="6" x="0" y="697"></rect><rect width="800" height="5" x="0" y="718"></rect><rect width="800" height="4" x="0" y="738"></rect><rect width="800" height="3" x="0" y="759"></rect><rect width="800" height="2" x="0" y="779"></rect><rect width="800" height="1" x="0" y="800"></rect></clipPath><clipPath><rect width="800" height="1" x="0" y="40"></rect><rect width="800" height="2" x="0" y="80"></rect><rect width="800" height="3" x="0" y="120"></rect><rect width="800" height="4" x="0" y="160"></rect><rect width="800" height="5" x="0" y="200"></rect><rect width="800" height="6" x="0" y="240"></rect><rect width="800" height="7" x="0" y="280"></rect><rect width="800" height="8" x="0" y="320"></rect><rect width="800" height="9" x="0" y="360"></rect><rect width="800" height="10" x="0" y="400"></rect><rect width="800" height="11" x="0" y="440"></rect><rect width="800" height="12" x="0" y="480"></rect><rect width="800" height="13" x="0" y="520"></rect><rect width="800" height="14" x="0" y="560"></rect><rect width="800" height="15" x="0" y="600"></rect><rect width="800" height="16" x="0" y="640"></rect><rect width="800" height="17" x="0" y="680"></rect><rect width="800" height="18" x="0" y="720"></rect><rect width="800" height="19" x="0" y="760"></rect><rect width="800" height="20" x="0" y="800"></rect></clipPath></defs><rect width="800" height="800" fill="url(#hhhorizon-grad)" clip-path="url(&quot;#SvgjsClipPath1187&quot;)"></rect><circle r="400" cx="400" cy="0" fill="url(#hhhorizon-grad)" clip-path="url(&quot;#SvgjsClipPath1187&quot;)"></circle><circle r="400" cx="400" cy="800" fill="url(#hhhorizon-grad)" clip-path="url(&quot;#SvgjsClipPath1187&quot;)"></circle></svg>